<svg width="142" height="142" viewBox="0 0 142 142" fill="none" xmlns="http://www.w3.org/2000/svg">
<path d="M91 2.31195L75.5 16.812C80.7467 26.1077 85.0006 26.9211 93 21.312L91 2.31195Z" fill="url(#paint0_linear_15_29)"/>
<path d="M110.924 13.3014L91.5811 22.0402C93.5562 32.5301 97.3219 34.6695 106.701 31.9339L110.924 13.3014Z" fill="url(#paint1_linear_15_29)"/>
<path d="M126.233 25.5627L105.751 31.1276C106.04 41.7979 109.419 44.5068 119.113 43.2912L126.233 25.5627Z" fill="url(#paint2_linear_15_29)"/>
<path d="M137.908 51.4301L118.304 43.2967C112.002 51.9124 113.017 56.1228 121.428 61.0939L137.908 51.4301Z" fill="url(#paint3_linear_15_29)"/>
<path d="M141.44 69.7047L123.575 58.2439C115.854 65.6143 116.111 69.9377 123.514 76.3131L141.44 69.7047Z" fill="url(#paint4_linear_15_29)"/>
<path d="M137.766 89.1462L122.274 74.6378C113.345 80.487 112.814 84.7853 118.94 92.3968L137.766 89.1462Z" fill="url(#paint5_linear_15_29)"/>
<path d="M128.242 110.23L118.373 91.4389C108.019 94.0319 106.106 97.9176 109.392 107.118L128.242 110.23Z" fill="url(#paint6_linear_15_29)"/>
<path d="M110.446 127.71L109.448 106.509C98.9683 104.48 95.592 107.192 94.6795 116.92L110.446 127.71Z" fill="url(#paint7_linear_15_29)"/>
<path d="M88.5398 138.503L95.2027 118.351C86.1451 112.703 82.0212 114.026 77.685 122.781L88.5398 138.503Z" fill="url(#paint8_linear_15_29)"/>
<path d="M61.6927 0.279104L75.0175 16.8004C68.5248 25.2729 64.199 25.4847 57.0607 18.814L61.6927 0.279104Z" fill="url(#paint9_linear_15_29)"/>
<path d="M37.8936 10.3014L57.2361 19.0402C55.261 29.5301 51.4953 31.6695 42.1161 28.9339L37.8936 10.3014Z" fill="url(#paint10_linear_15_29)"/>
<path d="M20.7677 22.5627L41.2501 28.1276C40.9614 38.7979 37.5821 41.5068 27.888 40.2912L20.7677 22.5627Z" fill="url(#paint11_linear_15_29)"/>
<path d="M6.14642 43.0128L26.9126 38.6235C31.5222 48.2511 29.7503 52.2031 20.5687 55.5426L6.14642 43.0128Z" fill="url(#paint12_linear_15_29)"/>
<path d="M0.846819 63.354L20.5458 55.4514C26.7457 64.1405 25.6814 68.3386 17.2128 73.2107L0.846819 63.354Z" fill="url(#paint13_linear_15_29)"/>
<path d="M2.29066 88.0776L17.4031 73.1741C26.48 78.7909 27.1215 83.0741 21.1947 90.8411L2.29066 88.0776Z" fill="url(#paint14_linear_15_29)"/>
<path d="M11.7024 108.913L20.8166 89.7446C31.266 91.9238 33.3316 95.7304 30.4137 105.055L11.7024 108.913Z" fill="url(#paint15_linear_15_29)"/>
<path d="M27.1312 126.103L29.7168 105.036C40.3191 103.799 43.4824 106.757 43.6624 116.526L27.1312 126.103Z" fill="url(#paint16_linear_15_29)"/>
<path d="M47.2012 136.584L43.3454 115.713C53.088 111.351 56.9932 113.224 60.0964 122.488L47.2012 136.584Z" fill="url(#paint17_linear_15_29)"/>
<path d="M65.8882 140.681L77.8322 123.135C70.6752 115.216 66.3464 115.355 59.7714 122.581L65.8882 140.681Z" fill="url(#paint18_linear_15_29)"/>
<circle cx="71" cy="70" r="51" fill="white" stroke="#F1DB01" stroke-width="6"/>
<defs>
<linearGradient id="paint0_linear_15_29" x1="84.25" y1="2.31195" x2="84.25" y2="24.8304" gradientUnits="userSpaceOnUse">
<stop stop-color="#FFEA00"/>
<stop offset="1" stop-color="#B69F07"/>
</linearGradient>
<linearGradient id="paint1_linear_15_29" x1="104.533" y1="11.1286" x2="97.2843" y2="32.4484" gradientUnits="userSpaceOnUse">
<stop stop-color="#FFEA00"/>
<stop offset="1" stop-color="#B69F07"/>
</linearGradient>
<linearGradient id="paint2_linear_15_29" x1="120.267" y1="22.4051" x2="109.734" y2="42.3078" gradientUnits="userSpaceOnUse">
<stop stop-color="#FFEA00"/>
<stop offset="1" stop-color="#B69F07"/>
</linearGradient>
<linearGradient id="paint3_linear_15_29" x1="135.122" y1="45.2819" x2="114.611" y2="54.5762" gradientUnits="userSpaceOnUse">
<stop stop-color="#FFEA00"/>
<stop offset="1" stop-color="#B69F07"/>
</linearGradient>
<linearGradient id="paint4_linear_15_29" x1="139.781" y1="63.1618" x2="117.953" y2="68.6963" gradientUnits="userSpaceOnUse">
<stop stop-color="#FFEA00"/>
<stop offset="1" stop-color="#B69F07"/>
</linearGradient>
<linearGradient id="paint5_linear_15_29" x1="137.32" y1="82.4109" x2="114.851" y2="83.8983" gradientUnits="userSpaceOnUse">
<stop stop-color="#FFEA00"/>
<stop offset="1" stop-color="#B69F07"/>
</linearGradient>
<linearGradient id="paint6_linear_15_29" x1="130.033" y1="103.722" x2="108.321" y2="97.7485" gradientUnits="userSpaceOnUse">
<stop stop-color="#FFEA00"/>
<stop offset="1" stop-color="#B69F07"/>
</linearGradient>
<linearGradient id="paint7_linear_15_29" x1="114.82" y1="122.569" x2="97.6707" y2="107.976" gradientUnits="userSpaceOnUse">
<stop stop-color="#FFEA00"/>
<stop offset="1" stop-color="#B69F07"/>
</linearGradient>
<linearGradient id="paint8_linear_15_29" x1="94.4655" y1="135.271" x2="83.6813" y2="115.502" gradientUnits="userSpaceOnUse">
<stop stop-color="#FFEA00"/>
<stop offset="1" stop-color="#B69F07"/>
</linearGradient>
<linearGradient id="paint9_linear_15_29" x1="68.3767" y1="1.22112" x2="65.2341" y2="23.5192" gradientUnits="userSpaceOnUse">
<stop stop-color="#FFEA00"/>
<stop offset="1" stop-color="#B69F07"/>
</linearGradient>
<linearGradient id="paint10_linear_15_29" x1="44.2843" y1="8.12857" x2="51.5329" y2="29.4484" gradientUnits="userSpaceOnUse">
<stop stop-color="#FFEA00"/>
<stop offset="1" stop-color="#B69F07"/>
</linearGradient>
<linearGradient id="paint11_linear_15_29" x1="26.7336" y1="19.4051" x2="37.2675" y2="39.3078" gradientUnits="userSpaceOnUse">
<stop stop-color="#FFEA00"/>
<stop offset="1" stop-color="#B69F07"/>
</linearGradient>
<linearGradient id="paint12_linear_15_29" x1="10.0156" y1="37.4818" x2="28.4673" y2="50.3896" gradientUnits="userSpaceOnUse">
<stop stop-color="#FFEA00"/>
<stop offset="1" stop-color="#B69F07"/>
</linearGradient>
<linearGradient id="paint13_linear_15_29" x1="3.70483" y1="57.2389" x2="24.1051" y2="66.7734" gradientUnits="userSpaceOnUse">
<stop stop-color="#FFEA00"/>
<stop offset="1" stop-color="#B69F07"/>
</linearGradient>
<linearGradient id="paint14_linear_15_29" x1="2.56248" y1="81.3331" x2="25.0626" y2="82.2399" gradientUnits="userSpaceOnUse">
<stop stop-color="#FFEA00"/>
<stop offset="1" stop-color="#B69F07"/>
</linearGradient>
<linearGradient id="paint15_linear_15_29" x1="9.6546" y1="102.481" x2="31.1117" y2="95.6495" gradientUnits="userSpaceOnUse">
<stop stop-color="#FFEA00"/>
<stop offset="1" stop-color="#B69F07"/>
</linearGradient>
<linearGradient id="paint16_linear_15_29" x1="23.1547" y1="120.648" x2="41.3508" y2="107.382" gradientUnits="userSpaceOnUse">
<stop stop-color="#FFEA00"/>
<stop offset="1" stop-color="#B69F07"/>
</linearGradient>
<linearGradient id="paint17_linear_15_29" x1="41.7711" y1="132.575" x2="55.1475" y2="114.46" gradientUnits="userSpaceOnUse">
<stop stop-color="#FFEA00"/>
<stop offset="1" stop-color="#B69F07"/>
</linearGradient>
<linearGradient id="paint18_linear_15_29" x1="72.4739" y1="139.201" x2="67.5371" y2="117.23" gradientUnits="userSpaceOnUse">
<stop stop-color="#FFEA00"/>
<stop offset="1" stop-color="#B69F07"/>
</linearGradient>
</defs>
</svg>
