<svg width="128" height="73" viewBox="0 0 128 73" fill="none" xmlns="http://www.w3.org/2000/svg">
<circle cx="5" cy="14" r="5" fill="#FFDDDD"/>
<circle cx="18.5" cy="50.5" r="2.5" fill="#FFDDDD"/>
<circle cx="124" cy="27" r="4" fill="#FFDDDD"/>
<circle cx="94.5" cy="65.5" r="4.5" fill="#FFDDDD"/>
<circle cx="80" cy="3" r="3" fill="#FFDDDD"/>
<circle cx="25.5" cy="18.5" r="2.5" fill="#FFDDDD"/>
<circle cx="33.5" cy="69.5" r="3.5" fill="#FFDDDD"/>
<circle cx="92.5" cy="25.5" r="2.5" fill="#FFDDDD"/>
<circle cx="57" cy="41" r="27" fill="#BE1E2D"/>
<g clip-path="url(#clip0_28_434)">
<path d="M50 33.604V42.789C50 43.4475 50.1626 44.0957 50.4733 44.6763C50.7839 45.2568 51.2332 45.7517 51.781 46.117L57 49.597L62.219 46.117C62.7667 45.7518 63.2158 45.2571 63.5265 44.6767C63.8372 44.0964 63.9998 43.4483 64 42.79V33.604L57 32.05L50 33.604ZM48.783 31.826L57 30L65.217 31.826C65.4391 31.8754 65.6377 31.999 65.78 32.1764C65.9224 32.3538 66 32.5745 66 32.802V42.789C65.9999 43.7767 65.756 44.7492 65.2899 45.62C64.8238 46.4908 64.1499 47.2331 63.328 47.781L57 52L50.672 47.781C49.8503 47.2332 49.1765 46.4911 48.7103 45.6205C48.2442 44.7498 48.0002 43.7776 48 42.79V32.802C48 32.5745 48.0776 32.3538 48.22 32.1764C48.3623 31.999 48.5609 31.8754 48.783 31.826ZM57 42.5L54.061 44.045L54.622 40.773L52.245 38.455L55.531 37.977L57 35L58.47 37.977L61.755 38.455L59.378 40.773L59.938 44.045L57 42.5Z" fill="white"/>
</g>
<defs>
<clipPath id="clip0_28_434">
<rect width="24" height="24" fill="white" transform="translate(45 29)"/>
</clipPath>
</defs>
</svg>
