<svg width="20" height="25" viewBox="0 0 20 25" fill="none" xmlns="http://www.w3.org/2000/svg">
<g clip-path="url(#clip0_2_60)">
<path d="M8.23529 9.60785C11.6461 9.60785 14.4118 12.3825 14.4118 15.8056V21.9608H2.05882V15.8056C2.05882 12.3825 4.82451 9.60785 8.23529 9.60785ZM6.51961 22.6471H9.95098C9.95098 23.1021 9.77022 23.5385 9.44847 23.8602C9.12671 24.182 8.69032 24.3628 8.23529 24.3628C7.78026 24.3628 7.34387 24.182 7.02212 23.8602C6.70037 23.5385 6.51961 23.1021 6.51961 22.6471Z" fill="white"/>
</g>
<circle cx="13.5294" cy="6.47059" r="6.47059" fill="black"/>
<path d="M11.1082 4.76116C11.1456 4.49983 11.2176 4.26916 11.3242 4.06916C11.4309 3.8665 11.5656 3.69716 11.7282 3.56116C11.8936 3.42516 12.0816 3.3225 12.2922 3.25316C12.5056 3.18116 12.7349 3.14516 12.9802 3.14516C13.2229 3.14516 13.4469 3.17983 13.6522 3.24916C13.8576 3.3185 14.0336 3.41716 14.1802 3.54516C14.3296 3.67316 14.4456 3.82783 14.5282 4.00916C14.6109 4.1905 14.6522 4.39183 14.6522 4.61316C14.6522 4.7945 14.6282 4.95716 14.5802 5.10116C14.5349 5.2425 14.4682 5.3665 14.3802 5.47316C14.2949 5.57983 14.1909 5.6705 14.0682 5.74516C13.9456 5.81983 13.8082 5.88116 13.6562 5.92916C14.0296 6.02516 14.3096 6.1905 14.4962 6.42516C14.6856 6.65716 14.7802 6.94783 14.7802 7.29716C14.7802 7.56116 14.7296 7.7985 14.6282 8.00916C14.5296 8.21983 14.3936 8.39983 14.2202 8.54916C14.0469 8.69583 13.8442 8.80916 13.6122 8.88916C13.3829 8.9665 13.1362 9.00516 12.8722 9.00516C12.5682 9.00516 12.3082 8.96783 12.0922 8.89316C11.8762 8.81583 11.6936 8.7105 11.5442 8.57716C11.3949 8.44383 11.2722 8.2865 11.1762 8.10516C11.0802 7.92116 10.9989 7.7225 10.9322 7.50916L11.2402 7.38116C11.3202 7.3465 11.3976 7.33716 11.4722 7.35316C11.5496 7.36916 11.6056 7.41316 11.6402 7.48516C11.6749 7.55983 11.7176 7.64916 11.7682 7.75316C11.8216 7.85716 11.8936 7.95716 11.9842 8.05316C12.0749 8.14916 12.1896 8.2305 12.3282 8.29716C12.4696 8.36383 12.6482 8.39716 12.8642 8.39716C13.0642 8.39716 13.2389 8.36516 13.3882 8.30116C13.5402 8.2345 13.6656 8.14916 13.7642 8.04516C13.8656 7.94116 13.9416 7.82516 13.9922 7.69716C14.0429 7.56916 14.0682 7.4425 14.0682 7.31716C14.0682 7.1625 14.0482 7.02116 14.0082 6.89316C13.9682 6.76516 13.8936 6.6545 13.7842 6.56116C13.6749 6.46783 13.5242 6.3945 13.3322 6.34116C13.1429 6.28783 12.8989 6.26116 12.6002 6.26116V5.74516C12.8456 5.7425 13.0536 5.71583 13.2242 5.66516C13.3976 5.6145 13.5376 5.54516 13.6442 5.45716C13.7536 5.36916 13.8322 5.26383 13.8802 5.14116C13.9309 5.0185 13.9562 4.8825 13.9562 4.73316C13.9562 4.56783 13.9296 4.42383 13.8762 4.30116C13.8256 4.1785 13.7549 4.07716 13.6642 3.99716C13.5736 3.91716 13.4656 3.85716 13.3402 3.81716C13.2176 3.77716 13.0842 3.75716 12.9402 3.75716C12.7962 3.75716 12.6616 3.7785 12.5362 3.82116C12.4136 3.86383 12.3042 3.92383 12.2082 4.00116C12.1149 4.07583 12.0362 4.16516 11.9722 4.26916C11.9082 4.37316 11.8629 4.48783 11.8362 4.61316C11.8016 4.7065 11.7576 4.76916 11.7042 4.80116C11.6536 4.8305 11.5789 4.8385 11.4802 4.82516L11.1082 4.76116Z" fill="white"/>
<defs>
<clipPath id="clip0_2_60">
<rect width="16.4706" height="16.4706" fill="white" transform="translate(0 8.23529)"/>
</clipPath>
</defs>
</svg>
